<?xml version="1.0" encoding="UTF-8"?><svg id="a" xmlns="http://www.w3.org/2000/svg" viewBox="0 0 491.39 251.73"><defs><style>.b{fill:#fffde3;}.c{fill:#fffbcc;}.d{fill:#fffcd9;}.e{fill:#fff79b;}.f{fill:#f8f3a2;}.g{fill:#727430;}</style></defs><path d="M321.71,77.97c6.71-.15,13.41-1.35,20.12-1.33,15.54,.05,24.67,8.9,24.9,24.56,.08,5.42,1.53,7.52,6.93,8.82,8.52,2.04,16.66,5.62,25.06,8.21,8.24,2.54,14.26,7.1,15.69,14.26,8.26,2.76,15.44,5.17,23.53,7.87,14.02-9.94,25.2-7.36,36.86,3.94,4.08,3.96,9.04,7.18,12.45,11.62,6.02,7.83,5.29,19.8-.85,28.35-2.1,2.93-4.43,5.7-6.79,8.71,2.35,2.9,4.79,5.6,6.87,8.55,4.59,6.49,5.79,13.62,3.9,21.39-3.83,15.76-29.25,31.82-43.62,27.19-3.61-1.16-6.86-3.43-10.42-5.27-13.63,9.48-21.94,9.36-35.44-1.49-5.83-4.68-12.22-9.39-16.19-15.49-5.5-8.44-3.73-17.81,.98-24.49-13.98-4.29-28.29-8.17-42.16-13.27-4.11-1.51-8.92-5.97-9.97-9.98-2.16-8.27-7.56-7.92-13.53-7.61-3.61,.19-7.19,.93-12.06,1.6,0,4.29,.14,8.86-.03,13.42-.53,14.63-6.86,23.11-21.2,23.98-14.39,.88-29.31,.87-43.34-1.99-22.48-4.58-36.56-19.49-41.68-42.24-2.22-9.88-2.58-9.67-12.96-8.64-6.09,.6-12.35-.79-18.53-.74-2.71,.02-6.47,.51-7.93,2.29-10.31,12.55-23.56,19.17-40.21,21.15,0,2.97-.32,6.02,.05,8.99,2.59,20.69-5,31.2-25.21,34.08-18.98,2.71-37.99,5.2-57.01,7.55-10.95,1.35-23.11-7.29-25.45-18.65-2.46-11.9-4.15-23.98-5.77-36.04C5.71,155.19,2.71,133.1,.31,110.95c-1.92-17.8,4.91-26.85,22.42-30.41,8.87-1.8,17.9-3.18,26.92-3.74,9.55-.6,17.72,3.14,24.13,11.78,10.86-12.1,24.02-19.1,40.01-20.08,16.03-.98,30.19,3.8,42.86,14.67,7.03-9.87,17.3-10.58,27.89-10.18,0-3.88-.1-7.38,.02-10.87,.17-4.98-.8-8.74-4.67-12.96-9.02-9.85-7.71-22.35-3.88-33.85,3.38-10.16,12.93-13.08,22.69-13.34,10.11-.27,14.46-.35,24.59-.08,2.44,.06,10.78,2.34,15.73,4.19,8.39,3.15,13.61,1.09,22.36-.36,15.66-2.59,31.01-7.73,47.41-4.86,15.56,2.73,19.84,13.18,19.03,27.12-.37,6.32-.29,12.7,.03,19.03,.85,16.99-.29,21.18-12.22,25.8-4.59,1.78-4.92,5.41,6.06,5.17Z"/><path class="c" d="M117.83,163.2c-10.2,0-18.9-3.6-26.1-10.81-7.21-7.21-10.81-15.91-10.81-26.1s3.6-18.9,10.81-26.1,15.91-10.81,26.1-10.81,18.9,3.6,26.1,10.81c7.21,7.21,10.81,15.91,10.81,26.1s-3.6,18.9-10.81,26.1-15.91,10.81-26.1,10.81Zm0-47.46c-2.92,0-5.41,1.03-7.46,3.08s-3.08,4.54-3.08,7.46,1.03,5.41,3.08,7.46,4.54,3.08,7.46,3.08,5.41-1.03,7.46-3.08,3.08-4.54,3.08-7.46-1.03-5.41-3.08-7.46-4.54-3.08-7.46-3.08Z"/><path class="d" d="M194.07,121.22v17.09c0,2.28-1.14,3.42-3.42,3.42h-10.25c-2.28,0-3.42-1.14-3.42-3.42v-41.02c0-2.28,1.14-3.42,3.42-3.42h10.25c2.28,0,3.78,1.11,4.51,3.32l5.74,17.19v-17.09c0-2.28,1.14-3.42,3.42-3.42h10.25c2.28,0,3.42,1.14,3.42,3.42v41.02c0,2.28-1.14,3.42-3.42,3.42h-10.25c-2.28,0-3.81-1.15-4.58-3.45l-5.67-17.06Z"/><path class="b" d="M257.87,194.24c-10.2,0-18.9-3.6-26.1-10.81-7.21-7.21-10.81-15.91-10.81-26.1s3.6-18.9,10.81-26.1c7.21-7.21,15.91-10.81,26.1-10.81,8.58,0,16.08,2.55,22.52,7.65,1.37,1.05,2.06,2.18,2.06,3.38,0,1.05-.51,2.16-1.53,3.32l-12.13,11.76c-1.09,1.44-2.32,2.16-3.69,2.16-1.02,0-2.13-.4-3.32-1.21-1.2-.46-2.5-.69-3.9-.69-2.92,0-5.41,1.03-7.46,3.08s-3.08,4.54-3.08,7.46,1.03,5.41,3.08,7.46,4.54,3.08,7.46,3.08c1.93,0,3.69-.46,5.27-1.37v-9.18c0-3.52,1.76-5.27,5.27-5.27h15.82c3.51,0,5.27,1.76,5.27,5.27v31.64c0,3.52-1.76,5.27-5.27,5.27h-26.37Z"/><path class="e" d="M316.3,125.8v20.78c0,2.77-1.39,4.16-4.16,4.16h-12.47c-2.77,0-4.16-1.38-4.16-4.16v-49.86c0-2.77,1.39-4.16,4.16-4.16h12.47c2.77,0,4.6,1.34,5.48,4.03l6.98,20.9v-20.78c0-2.77,1.39-4.16,4.16-4.16h12.47c2.77,0,4.16,1.39,4.16,4.16v49.86c0,2.77-1.39,4.16-4.16,4.16h-12.47c-2.77,0-4.63-1.4-5.57-4.2l-6.9-20.73Z"/><path class="e" d="M29.49,100.86l23.59-3.03c5.24-.67,8.2,1.61,8.87,6.85l9.1,70.77,23.59-3.03c5.24-.67,8.2,1.61,8.87,6.85l2.02,15.73c.67,5.24-1.61,8.2-6.85,8.87l-55.04,7.08c-5.24,.67-8.2-1.61-8.87-6.85l-12.13-94.36c-.67-5.24,1.61-8.2,6.85-8.87Z"/><path class="g" d="M418.55,195.5l-15.77-18.89c-1.08-1.3-1.62-2.54-1.62-3.73,0-1.45,.78-2.82,2.34-4.12l12.87-10.7c1.3-1.08,2.54-1.62,3.73-1.62,1.45,0,2.82,.78,4.12,2.34l12.48,14.99,12.48-14.99c1.3-1.56,2.68-2.34,4.12-2.34,1.19,0,2.43,.54,3.73,1.62l12.87,10.7c1.56,1.3,2.34,2.68,2.34,4.12,0,1.19-.54,2.43-1.62,3.73l-15.77,18.89,15.77,18.89c1.08,1.3,1.62,2.55,1.62,3.73,0,1.45-.78,2.82-2.34,4.12l-12.87,10.7c-1.3,1.08-2.54,1.62-3.73,1.62-1.45,0-2.82-.78-4.12-2.34l-12.48-14.94-12.48,14.94c-1.3,1.56-2.68,2.34-4.12,2.34-1.19,0-2.43-.54-3.73-1.62l-12.87-10.7c-1.52-1.3-2.28-2.66-2.28-4.07,0-1.23,.54-2.49,1.62-3.79l15.72-18.89Z"/><g><path class="f" d="M255.34,53.65l2.6,11.35c.43,1.89-.29,3.05-2.19,3.49l-8.51,1.95c-1.89,.43-3.05-.29-3.49-2.19l-7.81-34.05c-.43-1.89,.29-3.05,2.19-3.49l8.51-1.95c1.89-.43,3.05,.29,3.49,2.19l2.6,11.35,5.68-1.3-2.6-11.35c-.43-1.89,.29-3.05,2.19-3.49l8.51-1.95c1.89-.43,3.05,.29,3.49,2.19l7.81,34.05c.43,1.89-.29,3.05-2.19,3.49l-8.51,1.95c-1.89,.43-3.05-.29-3.49-2.19l-2.6-11.35-5.68,1.3Z"/><path class="f" d="M307.2,22.85v5.14c0,1.71-.86,2.57-2.57,2.57h-10.29v2.57h7.71c1.71,0,2.57,.86,2.57,2.57v5.14c0,1.71-.86,2.57-2.57,2.57h-7.71v2.57h10.29c1.71,0,2.57,.86,2.57,2.57v5.14c0,1.71-.86,2.57-2.57,2.57h-20.57c-1.71,0-2.57-.86-2.57-2.57V22.85c0-1.71,.86-2.57,2.57-2.57h20.57c1.71,0,2.57,.86,2.57,2.57Z"/><path class="f" d="M222.27,39.38l-.19,27.34c-.02,2.28-1.16,3.41-3.44,3.39l-10.25-.07c-2.28-.02-3.41-1.16-3.39-3.44l.19-27.34-6.84-.05c-2.28-.02-3.41-1.16-3.39-3.44l.07-10.25c.02-2.28,1.16-3.41,3.44-3.39l30.76,.21c2.28,.02,3.41,1.16,3.39,3.44l-.07,10.25c-.02,2.28-1.16,3.41-3.44,3.39l-6.84-.05Z"/></g><path class="c" d="M399.68,140.14l-2.17,6.48c-.72,2.16-2.17,2.88-4.33,2.16l-12.96-4.34-1.09,3.24,9.72,3.26c2.16,.72,2.88,2.17,2.16,4.33l-2.17,6.48c-.72,2.16-2.17,2.88-4.33,2.16l-9.72-3.26-1.09,3.24,12.96,4.34c2.16,.72,2.88,2.17,2.16,4.33l-2.17,6.48c-.72,2.16-2.17,2.88-4.33,2.16l-25.93-8.68c-2.16-.72-2.88-2.17-2.16-4.33l13.03-38.89c.72-2.16,2.17-2.88,4.33-2.16l25.93,8.68c2.16,.72,2.88,2.17,2.16,4.33Z"/></svg>